<svg width="76" height="79" viewBox="0 0 76 79" fill="none" xmlns="http://www.w3.org/2000/svg">
<g id="Discord">
<g id="Discord_2">
<rect id="Rectangle" width="76" height="79" rx="24" fill="#7289DA"/>
<path id="Vector" d="M57.0555 25.9691C53.5693 23.07 49.3858 21.6205 44.9699 21.3789L44.2726 22.1037C48.2237 23.07 51.7099 25.0028 54.9638 27.6603C51.0127 25.4859 46.5968 24.0364 41.9485 23.5532C40.554 23.3116 39.3919 23.3116 37.9974 23.3116C36.6029 23.3116 35.4408 23.3116 34.0463 23.5532C29.398 24.0364 24.9821 25.4859 21.031 27.6603C24.2849 25.0028 27.7711 23.07 31.7222 22.1037L31.0249 21.3789C26.609 21.6205 22.4255 23.07 18.9393 25.9691C14.9882 33.7 12.8965 42.3973 12.6641 51.3361C16.1503 55.2015 21.031 57.6174 26.1442 57.6174C26.1442 57.6174 27.7711 55.6847 28.9332 53.9936C25.9118 53.2688 23.1228 51.5777 21.2635 48.9202C22.8904 49.8866 24.5173 50.8529 26.1442 51.5777C28.2359 52.544 30.3277 53.0272 32.4194 53.5104C34.2787 53.752 36.1381 53.9936 37.9974 53.9936C39.8567 53.9936 41.7161 53.752 43.5754 53.5104C45.6671 53.0272 47.7589 52.544 49.8506 51.5777C51.4775 50.8529 53.1044 49.8866 54.7313 48.9202C52.872 51.5777 50.083 53.2688 47.0616 53.9936C48.2237 55.6847 49.8506 57.6174 49.8506 57.6174C54.9638 57.6174 59.8445 55.2015 63.3307 51.3361C63.0983 42.3973 61.0066 33.7 57.0555 25.9691ZM30.3277 46.9875C28.0035 46.9875 25.9118 44.8132 25.9118 42.1557C25.9118 39.4982 28.0035 37.3239 30.3277 37.3239C32.6518 37.3239 34.7436 39.4982 34.7436 42.1557C34.7436 44.8132 32.6518 46.9875 30.3277 46.9875ZM45.6671 46.9875C43.343 46.9875 41.2512 44.8132 41.2512 42.1557C41.2512 39.4982 43.343 37.3239 45.6671 37.3239C47.9913 37.3239 50.083 39.4982 50.083 42.1557C50.083 44.8132 47.9913 46.9875 45.6671 46.9875Z" fill="white"/>
</g>
</g>
</svg>
